<svg width="93" height="47" viewBox="0 0 93 47" fill="none" xmlns="http://www.w3.org/2000/svg">
<path d="M17.72 46.72C14.52 46.72 11.66 45.96 9.14 44.44C6.62 42.92 4.62 40.86 3.14 38.26C1.7 35.66 0.98 32.78 0.98 29.62C0.98 26.42 1.72 23.54 3.2 20.98C4.68 18.38 6.68 16.32 9.2 14.8C11.72 13.28 14.54 12.52 17.66 12.52C20.06 12.52 22.18 12.98 24.02 13.9C25.9 14.78 27.38 16.04 28.46 17.68L27.08 19.48V0.579998H36.08V46H27.68V40L28.52 41.86C27.4 43.46 25.88 44.68 23.96 45.52C22.04 46.32 19.96 46.72 17.72 46.72ZM18.8 38.62C20.44 38.62 21.88 38.24 23.12 37.48C24.36 36.72 25.32 35.66 26 34.3C26.72 32.94 27.08 31.38 27.08 29.62C27.08 27.86 26.72 26.3 26 24.94C25.32 23.58 24.36 22.52 23.12 21.76C21.88 21 20.44 20.62 18.8 20.62C17.16 20.62 15.68 21.02 14.36 21.82C13.08 22.58 12.08 23.64 11.36 25C10.64 26.32 10.28 27.86 10.28 29.62C10.28 31.38 10.64 32.94 11.36 34.3C12.08 35.66 13.08 36.72 14.36 37.48C15.68 38.24 17.16 38.62 18.8 38.62Z" fill="black"/>
<path d="M42.6711 46V13.24H51.0711V21.22L50.1711 19.9C50.6511 17.38 51.8111 15.52 53.6511 14.32C55.4911 13.12 57.6911 12.52 60.2511 12.52C62.9711 12.52 65.3511 13.22 67.3911 14.62C69.4711 15.98 70.7711 17.82 71.2911 20.14L68.7111 20.38C69.7911 17.7 71.3311 15.72 73.3311 14.44C75.3311 13.16 77.6711 12.52 80.3511 12.52C82.7111 12.52 84.7911 13.04 86.5911 14.08C88.4311 15.12 89.8711 16.58 90.9111 18.46C91.9511 20.3 92.4711 22.46 92.4711 24.94V46H83.4711V26.86C83.4711 25.58 83.2311 24.48 82.7511 23.56C82.3111 22.64 81.6711 21.92 80.8311 21.4C79.9911 20.88 78.9711 20.62 77.7711 20.62C76.6111 20.62 75.5911 20.88 74.7111 21.4C73.8711 21.92 73.2111 22.64 72.7311 23.56C72.2911 24.48 72.0711 25.58 72.0711 26.86V46H63.0711V26.86C63.0711 25.58 62.8311 24.48 62.3511 23.56C61.9111 22.64 61.2711 21.92 60.4311 21.4C59.5911 20.88 58.5711 20.62 57.3711 20.62C56.2111 20.62 55.1911 20.88 54.3111 21.4C53.4711 21.92 52.8111 22.64 52.3311 23.56C51.8911 24.48 51.6711 25.58 51.6711 26.86V46H42.6711Z" fill="#DD6B20"/>
</svg>
